Coordinates
version=1
nRows=13
nColumns=36
inDegrees=yes

Units are S.I. units (second, meters, Newtons, ...)
If the header above contains a line with 'inDegrees', this indicates whether rotational values are in degrees (yes) or radians (no).

endheader
time	pelvis_tilt	pelvis_list	pelvis_rotation	pelvis_tx	pelvis_ty	pelvis_tz	hip_flexion_r	hip_adduction_r	hip_rotation_r	knee_angle_r	knee_angle_r_beta	ankle_angle_r	subtalar_angle_r	mtp_angle_r	hip_flexion_l	hip_adduction_l	hip_rotation_l	knee_angle_l	knee_angle_l_beta	ankle_angle_l	subtalar_angle_l	mtp_angle_l	lumbar_extension	lumbar_bending	lumbar_rotation	arm_flex_r	arm_add_r	arm_rot_r	elbow_flex_r	pro_sup_r	arm_flex_l	arm_add_l	arm_rot_l	elbow_flex_l	pro_sup_l
      1.63000000	    -20.12178840	     -6.57880814	      6.52706984	     -0.28646969	      0.71658460	     -0.55136518	     70.85661788	      3.83815534	     -4.87410475	     85.19991760	      1.48701908	     27.73282269	    -25.94221179	     -7.44081565	     75.26064044	     -2.23373502	     14.27698570	     83.88855035	      1.46413141	     29.99086078	     -2.20044990	     -7.44081565	    -29.33434092	      4.62354351	     -8.95508300	     30.26463433	    -31.21342113	      0.96595963	     63.98909089	    110.87458348	     16.13995548	    -19.86749450	    -11.00975938	     75.56529934	     84.10715325
      1.64000000	    -20.08082550	     -6.27722016	      6.59605991	     -0.28331752	      0.72584034	     -0.55114613	     69.51494950	      3.79510339	     -4.55667426	     83.43081767	      1.45614247	     26.93716956	    -26.33729123	     -7.44263838	     73.83109720	     -2.45375044	     13.66208123	     82.01438278	      1.43142101	     29.43399814	     -2.35908864	     -7.44263838	    -28.12703465	      4.37987875	     -9.96333495	     31.97925245	    -32.49441906	     -0.92798882	     67.94828693	    110.13567882	     15.15664283	    -20.94575665	    -11.71631079	     82.74327481	     84.57965181
      1.65000000	    -19.89664623	     -6.01695212	      6.55993334	     -0.27985501	      0.73577498	     -0.55075297	     67.96072548	      3.87410683	     -4.27519750	     81.53973696	      1.42313688	     25.91785372	    -26.76855869	     -7.44649292	     72.22707255	     -3.02713207	     12.83028507	     80.04504758	      1.39704963	     28.96096300	     -1.91998638	     -7.44649292	    -26.94387686	      4.18001982	    -11.00699421	     34.42569510	    -34.07533888	     -1.31225188	     71.85508538	    108.59679364	     14.06821479	    -22.41432220	    -12.33858357	     90.30127902	     84.64556861
      1.66000000	    -19.60202908	     -5.69343213	      6.37564330	     -0.27603466	      0.74641266	     -0.55023368	     66.20828718	      4.03322211	     -3.86162226	     79.54787602	      1.38837235	     25.32794194	    -26.48982495	     -7.44718063	     70.30159067	     -3.51765182	     12.10280571	     77.94034527	      1.36031565	     28.47183504	     -1.70148941	     -7.44718063	    -25.79515297	      3.89555891	    -11.29222738	     36.45563999	    -36.43003069	     -1.97703499	     76.68079754	    108.57604419	     13.81105705	    -23.82085330	    -12.05329184	     97.41469034	     85.36885438
      1.67000000	    -19.36741998	     -5.30255292	      6.08859685	     -0.27179329	      0.75765497	     -0.54950238	     64.39412195	      4.13322564	     -3.48265456	     77.31987927	      1.34948647	     24.57416017	    -26.14057274	     -7.44766455	     68.16815038	     -3.81104794	     11.59421480	     75.52734068	      1.31820077	     27.95906907	     -1.79757599	     -7.44766455	    -24.48946355	      3.50082583	    -11.45735319	     38.58125877	    -38.96586392	     -2.52439766	     81.69478967	    108.61273727	     13.60318911	    -25.50352289	    -12.01715662	    104.49157643	     86.09950062
      1.68000000	    -19.13896458	     -4.63913540	      5.71926169	     -0.26743307	      0.76919804	     -0.54905657	     62.59560785	      4.04699014	     -2.87671699	     75.17528297	      1.31205620	     23.52940881	    -26.32103219	     -7.44892467	     65.89089794	     -3.82986924	     10.91165395	     72.99697152	      1.27403750	     27.03441955	     -2.73291556	     -7.44892467	    -23.27950405	      3.02386620	    -11.87589121	     41.46989477	    -41.07022884	     -2.94357650	     87.90046929	    108.25826016	     13.12097162	    -26.82563078	    -13.23867034	    112.26090905	     86.58474562
      1.69000000	    -19.05084556	     -4.17957859	      5.10088839	     -0.26276178	      0.78084573	     -0.54808872	     60.85902064	      4.24825817	     -2.39142977	     72.72835928	      1.26934933	     21.79536053	    -26.84917959	     -7.45341707	     63.77334169	     -4.23333018	     10.21173621	     70.38664688	      1.22847874	     25.64135008	     -3.85013602	     -7.45341707	    -21.65182365	      2.75832035	    -12.48017658	     46.19599153	    -43.21743906	     -0.34317412	     92.82920411	    106.98556139	     11.87611597	    -28.92930963	    -14.78835609	    120.22471631	     85.98054037
      1.70000000	    -18.97502492	     -3.80271787	      4.31488560	     -0.25759849	      0.79314210	     -0.54651815	     58.98037998	      4.64345343	     -1.88469826	     69.99160743	      1.22158400	     20.42917500	    -26.85688019	     -7.45698722	     61.54767595	     -4.89472398	      9.42255648	     67.59984185	      1.17983981	     24.72755418	     -4.15389532	     -7.45698722	    -19.95017475	      2.53531393	    -12.12060605	     50.55738678	    -45.90703340	      1.57823333	     98.31271905	    106.79871067	     11.42171027	    -31.03169944	    -15.68512938	    127.34665459	     85.83839454
      1.71000000	    -18.83791329	     -3.28747142	      3.51610566	     -0.25211784	      0.80635589	     -0.54500177	     56.90561252	      4.84851790	     -1.29338803	     67.08260523	      1.17081233	     19.42394760	    -26.17053172	     -7.45777773	     59.04084236	     -5.46846800	      8.42190246	     64.47351340	      1.12527509	     23.78716699	     -4.14836503	     -7.45777773	    -18.27254188	      2.19567134	    -11.01778791	     54.67797555	    -49.26458880	      3.17905582	    103.99158478	    107.07221248	     11.98998411	    -33.23833326	    -15.59004799	    133.43049334	     86.40732907
      1.72000000	    -18.72548653	     -2.63607820	      2.72886775	     -0.24637931	      0.82040893	     -0.54387718	     54.71475534	      4.82365633	     -0.66702815	     63.86556125	      1.11466432	     17.44920273	    -26.24201357	     -7.46482206	     56.33220964	     -5.76891949	      7.33286309	     60.95292143	      1.06382917	     22.11772442	     -4.91463833	     -7.46482206	    -16.53007804	      2.07309458	    -11.96253176	     62.52938399	    -49.83383194	      9.11854321	    107.58278526	    106.13827503	      8.86447768	    -36.20447958	    -19.88590149	    140.37984932	     85.72761446
      1.73000000	    -18.63701103	     -1.79983709	      1.77189295	     -0.24014930	      0.83525688	     -0.54236847	     52.41100346	      4.71230256	      0.17050290	     60.40124311	      1.05420056	     15.62765674	    -25.77674843	     -7.47039893	     53.35042740	     -5.98796859	      6.02117057	     56.98175291	      0.99451920	     20.19359127	     -5.58915142	     -7.47039893	    -14.68698714	      1.65460622	    -12.00992052	     69.65726815	    -51.00150997	     14.63684688	    111.22212826	    106.11930783	      6.07176774	    -39.26222123	    -23.59277227	    145.81963105	     86.33305686
      1.74000000	    -18.43792573	     -0.80501154	      0.62290933	     -0.23360862	      0.85102869	     -0.54029350	     49.87194513	      4.55414241	      1.21205095	     56.65677727	      0.98884731	     13.70480471	    -25.09370880	     -7.47752064	     49.97532050	     -6.14926681	      4.48156187	     52.54946073	      0.91716111	     18.08099441	     -5.96110967	     -7.47752064	    -12.86090120	      1.09822246	    -11.88307813	     77.25903738	    -51.63658547	     21.11401676	    114.22167974	    106.27580351	      2.13806055	    -42.39739361	    -28.95785996	    148.80332272	     94.86506447
      1.75000000	    -18.03536105	      0.24717268	     -0.51190142	     -0.22711954	      0.86778832	     -0.53827582	     47.02242935	      4.18862921	      2.26176187	     52.63551519	      0.91866304	     11.55772420	    -23.97824102	     -7.47867997	     46.25605939	     -6.09746940	      2.90991743	     47.68563789	      0.83227139	     15.15002613	     -6.48858044	     -7.47867997	    -11.06068962	      0.32896291	     -9.40988859	     84.05591590	    -55.21717221	     27.33190975	    117.83528438	    106.83093796	      2.35620955	    -45.45354373	    -28.84285582	    149.45659522	     99.69406035
